<svg width="631" height="793" viewBox="0 0 631 793" fill="none" xmlns="http://www.w3.org/2000/svg">
<path d="M310.69 623.966C185.118 623.966 83.0692 521.937 83.0692 396.391C83.0692 270.846 185.118 168.962 310.69 168.962C373.367 168.962 430.254 194.433 471.436 235.679L591 116.139C519.059 44.3571 420.121 0 310.69 0C91.9712 0 -86 177.79 -86 396.391C-86 614.993 91.9712 793 310.69 793C420.121 793 519.059 748.571 591 676.716L471.436 557.321C430.254 598.495 373.367 624.038 310.69 624.038V623.966Z" fill="#0094F9"/>
<path d="M631 717L437 523H631V717Z" fill="#0094F9"/>
</svg>
