<svg width="255" height="51" viewBox="0 0 255 51" fill="none" xmlns="http://www.w3.org/2000/svg">
<path d="M23.8693 3.5H31.2407L19.9646 38.5H11.1791L0 3.5H7.37139L15.5719 30.0514L23.8693 3.5Z" fill="#00409C"/>
<path d="M49.0055 11H55.9858L55.9357 38.5H48.9554V34.8014C46.9061 37.6678 44.108 39.1027 40.561 39.1027C37.0141 39.1027 34.0856 37.7603 31.7755 35.0788C29.4655 32.3973 28.3088 28.9521 28.3088 24.7534C28.3088 20.5548 29.4722 17.113 31.7989 14.4281C34.1257 11.7466 37.0274 10.4041 40.5109 10.4041C43.9943 10.4041 46.9195 11.887 49.0022 14.8527V11.0034L49.0055 11ZM42.1222 32.3014C44.108 32.3014 45.7494 31.6027 47.0532 30.2021C48.3537 28.8014 49.0055 26.9863 49.0055 24.7534C49.0055 22.5205 48.3537 20.7021 47.0532 19.3048C45.7528 17.9041 44.108 17.2055 42.1222 17.2055C40.1365 17.2055 38.5118 17.9041 37.2414 19.3048C35.9711 20.7055 35.3392 22.5205 35.3392 24.7534C35.3392 26.9863 35.9811 28.8048 37.2682 30.2021C38.5519 31.6027 40.1732 32.3014 42.1256 32.3014H42.1222Z" fill="#00409C"/>
<path d="M59.379 38.5V0H66.3592V38.5H59.379Z" fill="#00409C"/>
<path d="M94.3037 11V38.5H87.3234V34.6986C85.2741 37.6336 82.5061 39.0993 79.026 39.0993C76.0641 39.0993 73.7306 38.1233 72.0223 36.1747C70.3141 34.226 69.4582 31.5822 69.4582 28.25V11H76.4385V26.7021C76.4385 28.5685 76.8196 29.9692 77.5852 30.9007C78.3507 31.8356 79.611 32.3014 81.3661 32.3014C83.285 32.3014 84.7593 31.7192 85.7823 30.5514C86.8086 29.3836 87.3201 27.6849 87.3201 25.4521V11H94.3037Z" fill="#00409C"/>
<path d="M110.975 10.4007C115.368 10.4007 118.842 11.9521 121.396 15.0514C123.95 18.1507 125.05 22 124.692 26.6027H104.095C104.323 28.7363 105.072 30.3699 106.339 31.5034C107.609 32.637 109.187 33.2021 111.072 33.2021C112.44 33.2021 113.66 32.8938 114.733 32.2774C115.806 31.661 116.572 30.8185 117.026 29.7534H124.251C123.308 32.8527 121.646 35.1884 119.273 36.7534C116.896 38.3219 114.178 39.1027 111.122 39.1027C106.957 39.1027 103.557 37.7534 100.92 35.0514C98.2852 32.3527 96.9647 28.9349 96.9647 24.8014C96.9647 20.6678 98.2819 17.2363 100.92 14.5C103.557 11.7671 106.907 10.4007 110.975 10.4007ZM110.925 16.3014C109.267 16.3014 107.883 16.7603 106.777 17.6781C105.67 18.5959 104.891 19.8219 104.433 21.3527H117.27C116.879 19.8185 116.13 18.5959 115.027 17.6781C113.921 16.7603 112.553 16.3014 110.925 16.3014Z" fill="#00409C"/>
<path d="M181.597 11H189.065L171.591 51H164.173L171.2 34.8493L160.853 11H168.272L174.911 27.0993L181.597 11Z" fill="#00409C"/>
<path d="M201.558 39.1027C197.557 39.1027 194.23 37.7363 191.576 35.0034C188.925 32.2705 187.598 28.8527 187.598 24.7534C187.598 20.6541 188.922 17.2363 191.576 14.5034C194.227 11.7705 197.57 10.4041 201.608 10.4041C204.992 10.4041 207.947 11.3973 210.467 13.3801C212.988 15.363 214.496 18.0548 214.984 21.4555H207.81C207.419 20.024 206.663 18.9212 205.54 18.1541C204.417 17.387 203.106 17.0034 201.612 17.0034C199.496 17.0034 197.804 17.7192 196.534 19.1541C195.263 20.589 194.645 22.4555 194.678 24.7534C194.645 27.0548 195.273 28.9212 196.557 30.3527C197.841 31.7877 199.509 32.5034 201.562 32.5034C203.059 32.5034 204.376 32.1199 205.516 31.3527C206.656 30.5856 207.419 29.4692 207.81 28.0034H214.984C214.462 31.5034 212.941 34.2295 210.421 36.1781C207.9 38.1267 204.945 39.1027 201.562 39.1027H201.558Z" fill="#00409C"/>
<path d="M217.518 38.5V0H224.498V38.5H217.518Z" fill="#00409C"/>
<path d="M241.22 10.4007C245.613 10.4007 249.086 11.9521 251.64 15.0514C254.194 18.1507 255.294 22 254.936 26.6027H234.34C234.567 28.7363 235.316 30.3699 236.587 31.5034C237.854 32.637 239.431 33.2021 241.32 33.2021C242.688 33.2021 243.908 32.8938 244.981 32.2774C246.054 31.661 246.82 30.8185 247.274 29.7534H254.499C253.556 32.8527 251.894 35.1884 249.521 36.7534C247.144 38.3219 244.426 39.1027 241.37 39.1027C237.205 39.1027 233.805 37.7534 231.167 35.0514C228.533 32.3527 227.213 28.9349 227.213 24.8014C227.213 20.6678 228.53 17.2363 231.167 14.5C233.802 11.7671 237.155 10.4007 241.223 10.4007H241.22ZM241.17 16.3014C239.512 16.3014 238.128 16.7603 237.021 17.6781C235.915 18.5959 235.132 19.8219 234.678 21.3527H247.515C247.124 19.8185 246.375 18.5959 245.272 17.6781C244.165 16.7603 242.798 16.3014 241.17 16.3014Z" fill="#00409C"/>
<path d="M145.847 33.637C140.046 33.637 135.333 28.8082 135.333 22.8664C135.333 16.9247 140.046 12.1027 145.847 12.1027C148.742 12.1027 151.369 13.3082 153.271 15.2603L158.794 9.60274C155.471 6.20548 150.901 4.10616 145.847 4.10616C135.744 4.10616 127.523 12.5205 127.523 22.8664C127.523 33.2123 135.744 41.637 145.847 41.637C150.901 41.637 155.471 39.5342 158.794 36.1336L153.271 30.4829C151.369 32.4315 148.742 33.6404 145.847 33.6404V33.637Z" fill="#0094F9"/>
<path d="M160.633 38.0171L151.663 28.839H160.633V38.0171Z" fill="#0094F9"/>
</svg>
