<svg width="255" height="50" viewBox="0 0 255 50" fill="none" xmlns="http://www.w3.org/2000/svg">
<path d="M23.8693 3.43137H31.2407L19.9646 37.7451H11.1791L0 3.43137H7.37139L15.5719 29.4621L23.8693 3.43137Z" fill="white"/>
<path d="M49.0055 10.7843H55.9858L55.9357 37.7451H48.9554V34.119C46.9061 36.9292 44.108 38.336 40.561 38.336C37.0141 38.336 34.0856 37.0199 31.7755 34.391C29.4655 31.762 28.3088 28.3844 28.3088 24.2681C28.3088 20.1518 29.4722 16.7775 31.7989 14.1452C34.1257 11.5163 37.0275 10.2001 40.5109 10.2001C43.9943 10.2001 46.9195 11.6539 49.0022 14.5615V10.7877L49.0055 10.7843ZM42.1222 31.668C44.108 31.668 45.7494 30.9831 47.0532 29.6099C48.3537 28.2366 49.0055 26.4572 49.0055 24.2681C49.0055 22.079 48.3537 20.2961 47.0532 18.9263C45.7528 17.553 44.108 16.8681 42.1222 16.8681C40.1365 16.8681 38.5118 17.553 37.2414 18.9263C35.9711 20.2995 35.3392 22.079 35.3392 24.2681C35.3392 26.4572 35.9811 28.24 37.2682 29.6099C38.5519 30.9831 40.1732 31.668 42.1256 31.668H42.1222Z" fill="white"/>
<path d="M59.3789 37.7451V0H66.3592V37.7451H59.3789Z" fill="white"/>
<path d="M94.3037 10.7843V37.7451H87.3234V34.0183C85.2741 36.8956 82.5061 38.3327 79.026 38.3327C76.0641 38.3327 73.7306 37.3758 72.0223 35.4654C70.314 33.5549 69.4582 30.9629 69.4582 27.6961V10.7843H76.4385V26.1785C76.4385 28.0083 76.8196 29.3816 77.5851 30.2948C78.3507 31.2114 79.611 31.668 81.3661 31.668C83.285 31.668 84.7593 31.0972 85.7823 29.9523C86.8086 28.8074 87.3201 27.1421 87.3201 24.953V10.7843H94.3037Z" fill="white"/>
<path d="M110.975 10.1968C115.368 10.1968 118.842 11.7177 121.396 14.7562C123.95 17.7948 125.05 21.5686 124.692 26.0811H104.095C104.323 28.1728 105.072 29.7744 106.339 30.8857C107.609 31.997 109.187 32.551 111.072 32.551C112.44 32.551 113.66 32.2489 114.733 31.6445C115.806 31.0402 116.572 30.2142 117.026 29.17H124.251C123.308 32.2086 121.646 34.4984 119.273 36.0328C116.896 37.5705 114.178 38.336 111.122 38.336C106.957 38.336 103.557 37.0132 100.92 34.3641C98.2852 31.7184 96.9647 28.3676 96.9647 24.3151C96.9647 20.2626 98.2819 16.8983 100.92 14.2157C103.557 11.5364 106.907 10.1968 110.975 10.1968ZM110.925 15.9817C109.267 15.9817 107.883 16.4316 106.777 17.3315C105.67 18.2313 104.891 19.4333 104.433 20.9341H117.27C116.879 19.4299 116.13 18.2313 115.027 17.3315C113.921 16.4316 112.553 15.9817 110.925 15.9817Z" fill="white"/>
<path d="M181.597 10.7843H189.065L171.591 50H164.173L171.2 34.166L160.853 10.7843H168.272L174.911 26.568L181.597 10.7843Z" fill="white"/>
<path d="M201.558 38.336C197.557 38.336 194.23 36.9964 191.576 34.3171C188.925 31.6378 187.598 28.287 187.598 24.2681C187.598 20.2491 188.922 16.8983 191.576 14.219C194.227 11.5398 197.57 10.2001 201.608 10.2001C204.992 10.2001 207.947 11.1738 210.467 13.1178C212.988 15.0618 214.496 17.7008 214.984 21.0348H207.81C207.419 19.6313 206.663 18.5502 205.54 17.7981C204.417 17.0461 203.106 16.67 201.612 16.67C199.496 16.67 197.804 17.3717 196.534 18.7785C195.263 20.1853 194.645 22.0152 194.678 24.2681C194.645 26.5243 195.273 28.3542 196.557 29.7576C197.841 31.1644 199.509 31.8661 201.562 31.8661C203.059 31.8661 204.376 31.4901 205.516 30.738C206.656 29.9859 207.419 28.8914 207.81 27.4543H214.984C214.462 30.8857 212.941 33.5583 210.421 35.4687C207.9 37.3791 204.945 38.336 201.562 38.336H201.558Z" fill="white"/>
<path d="M217.518 37.7451V0H224.498V37.7451H217.518Z" fill="white"/>
<path d="M241.22 10.1968C245.613 10.1968 249.086 11.7177 251.64 14.7562C254.194 17.7948 255.294 21.5686 254.936 26.0811H234.34C234.567 28.1728 235.316 29.7744 236.587 30.8857C237.854 31.997 239.431 32.551 241.32 32.551C242.688 32.551 243.908 32.2489 244.981 31.6445C246.054 31.0402 246.82 30.2142 247.274 29.17H254.499C253.556 32.2086 251.894 34.4984 249.521 36.0328C247.144 37.5705 244.426 38.336 241.37 38.336C237.205 38.336 233.805 37.0132 231.167 34.3641C228.533 31.7184 227.213 28.3676 227.213 24.3151C227.213 20.2626 228.53 16.8983 231.167 14.2157C233.802 11.5364 237.155 10.1968 241.223 10.1968H241.22ZM241.17 15.9817C239.512 15.9817 238.128 16.4316 237.021 17.3315C235.915 18.2313 235.132 19.4333 234.678 20.9341H247.515C247.124 19.4299 246.375 18.2313 245.272 17.3315C244.165 16.4316 242.798 15.9817 241.17 15.9817Z" fill="white"/>
<path d="M145.847 32.9774C140.046 32.9774 135.333 28.2434 135.333 22.4181C135.333 16.5928 140.046 11.8654 145.847 11.8654C148.742 11.8654 151.369 13.0473 153.271 14.9611L158.794 9.41445C155.471 6.0838 150.901 4.02565 145.847 4.02565C135.744 4.02565 127.523 12.275 127.523 22.4181C127.523 32.5611 135.744 40.8206 145.847 40.8206C150.901 40.8206 155.471 38.7591 158.794 35.4251L153.271 29.8852C151.369 31.7956 148.742 32.9808 145.847 32.9808V32.9774Z" fill="white"/>
<path d="M160.633 37.2717L151.663 28.2736H160.633V37.2717Z" fill="white"/>
</svg>
